<svg width="38" height="33" viewBox="0 0 38 33" fill="none" xmlns="http://www.w3.org/2000/svg">
<path d="M20.542 24.9034H24V21.6487H20.542V18H17.4597V21.6487H14V24.9034H17.4597V29H20.542V24.9034Z" fill="url(#paint0_radial_0_13103)"/>
<path d="M4.07086 3.18742C1.52293 6.37833 0 10.3848 0 14.7427C0 21.742 3.92204 27.8455 9.73943 31.0858C11.1764 31.8872 12.728 32.5153 14.3665 32.9375C14.4494 32.958 14.5354 32.9772 14.6215 32.996C14.6259 32.9974 14.6291 32.9982 14.634 33V28.8357C14.2311 28.7138 13.8282 28.581 13.4522 28.4289C7.95792 26.1952 4.09642 20.9086 4.09642 14.7427C4.09642 11.0591 5.47675 7.69254 7.75761 5.09952C8.05514 4.82636 8.36484 4.56369 8.6835 4.30627C12.3421 5.37442 16.593 9.86422 17.3365 13.5395H21C20.8041 9.18291 17.2039 4.52479 12.4366 1.88675C10.8299 0.999097 9.09231 0.339152 7.30674 0C5.97431 0.988607 5.09897 1.89986 4.07086 3.18742Z" fill="url(#paint1_linear_0_13103)"/>
<path d="M33.4498 11.015C29.9497 11.1382 26.7107 12.2679 24 14.1212V18.0924C27.5763 15.7714 30.1268 14.7894 34.0818 14.7894C34.1182 14.7894 34.1499 14.7915 34.1875 14.7915C34.2016 15.0511 34.2094 15.3121 34.2094 15.576C34.2094 21.9998 29.8954 27.1164 24.0059 28.7962C24.0034 28.7962 24.0025 28.7966 24 28.7966V33C32.0078 31.236 38 24.1094 38 15.576C38 15.4977 37.9957 15.4216 37.9949 15.3458C37.9786 13.9622 37.8053 12.6182 37.4887 11.3281C37.4792 11.326 37.4694 11.3251 37.46 11.3238C36.368 11.1138 35.2363 11 34.0818 11C33.8705 11 33.66 11.0078 33.4498 11.015Z" fill="url(#paint2_linear_0_13103)"/>
<defs>
<radialGradient id="paint0_radial_0_13103" cx="0" cy="0" r="1" gradientUnits="userSpaceOnUse" gradientTransform="translate(18.9999 23.5) scale(5.10678 5.38961)">
<stop stop-color="#F28E58"/>
<stop offset="0.00128585" stop-color="#F28E58"/>
<stop offset="0.147935" stop-color="#F28E58"/>
<stop offset="1" stop-color="#E41F25"/>
</radialGradient>
<linearGradient id="paint1_linear_0_13103" x1="18.9312" y1="-3.11771" x2="4.83492" y2="28.7295" gradientUnits="userSpaceOnUse">
<stop stop-color="#C8D647"/>
<stop offset="0.00127611" stop-color="#C8D647"/>
<stop offset="1" stop-color="#007F42"/>
</linearGradient>
<linearGradient id="paint2_linear_0_13103" x1="36.2297" y1="5.26529" x2="22.2042" y2="36.1764" gradientUnits="userSpaceOnUse">
<stop stop-color="#C8D647"/>
<stop offset="0.00127611" stop-color="#C8D647"/>
<stop offset="1" stop-color="#007F42"/>
</linearGradient>
</defs>
</svg>
