<svg width="172" height="44" viewBox="0 0 172 44" fill="none" xmlns="http://www.w3.org/2000/svg">
<path d="M51.584 34.0999H50.8077V30.4615H49.5138L49.4275 32.1538C49.4275 32.6615 49.3412 33.0846 49.255 33.3384C49.1687 33.5922 48.9962 33.8461 48.8237 33.9307C48.6512 34.0999 48.3924 34.0999 48.0473 34.0999H47.8748V33.5076H47.9611C48.1336 33.5076 48.3061 33.423 48.3924 33.3384C48.4786 33.2538 48.5649 33.0845 48.5649 32.8307C48.6512 32.6615 48.6512 32.323 48.6512 31.8999L48.7374 29.7846H51.584V34.0999Z" fill="#007B39"/>
<path d="M55.207 33.1692H53.568L53.223 34.1845H52.4466L54.0856 29.9538H54.7757L56.4146 34.1845H55.6383L55.207 33.1692ZM53.7406 32.5769H55.0345L54.4306 30.7999L53.7406 32.5769Z" fill="#007B39"/>
<path d="M59.9513 30.4615H57.9673V31.4769H58.8299C59.175 31.4769 59.4338 31.5615 59.6926 31.6461C59.9513 31.7307 60.1239 31.8999 60.2101 32.0692C60.2964 32.2384 60.3826 32.4922 60.3826 32.7461C60.3826 33.1692 60.2101 33.423 59.9513 33.6769C59.6926 33.9307 59.2612 34.0153 58.8299 34.0153H57.191V29.7846H59.9513V30.4615ZM57.8811 32.1538V33.5922H58.7437C59.0025 33.5922 59.175 33.5076 59.3475 33.423C59.52 33.2538 59.52 33.0846 59.52 32.9153C59.52 32.6615 59.4338 32.4922 59.3475 32.4076C59.2613 32.1538 59.0887 32.1538 58.8299 32.1538H57.8811Z" fill="#007B39"/>
<path d="M64.782 32.1538C64.782 32.5769 64.6957 32.9153 64.5232 33.2538C64.3507 33.5922 64.1781 33.8461 63.9193 34.0153C63.6606 34.1846 63.3155 34.2692 62.9705 34.2692C62.6254 34.2692 62.2804 34.1846 62.0216 34.0153C61.7628 33.8461 61.504 33.5922 61.4178 33.2538C61.2453 32.9153 61.159 32.5769 61.159 32.1538V31.8999C61.159 31.4769 61.2453 31.1384 61.4178 30.7999C61.5903 30.4615 61.7628 30.2076 62.0216 30.0384C62.2804 29.8692 62.6254 29.7846 62.9705 29.7846C63.3155 29.7846 63.6606 29.8692 63.9193 30.0384C64.1781 30.2076 64.4369 30.4615 64.5232 30.7153C64.6957 31.0538 64.782 31.3922 64.782 31.8153V32.1538ZM64.0056 31.8999C64.0056 31.3922 63.9193 31.0538 63.7468 30.7999C63.5743 30.5461 63.3155 30.4615 62.9705 30.4615C62.6254 30.4615 62.3666 30.5461 62.1941 30.7999C62.0216 31.0538 61.9353 31.3922 61.9353 31.8999V32.1538C61.9353 32.6615 62.0216 32.9999 62.1941 33.2538C62.3666 33.5076 62.6254 33.6769 62.9705 33.6769C63.3155 33.6769 63.5743 33.5922 63.7468 33.3384C63.9193 33.0846 64.0056 32.7461 64.0056 32.2384V31.8999Z" fill="#007B39"/>
<path d="M66.5934 32.5769V34.1845H65.8171V29.9538H67.456C67.9736 29.9538 68.3187 30.0384 68.5774 30.2922C68.8362 30.5461 69.0087 30.8846 69.0087 31.3076C69.0087 31.7307 68.8362 32.0692 68.5774 32.2384C68.3187 32.4922 67.8873 32.5769 67.3698 32.5769H66.5934ZM67.456 31.9845C67.7148 31.9845 67.8874 31.8999 68.0599 31.8153C68.2324 31.7307 68.2324 31.4769 68.2324 31.3076C68.2324 31.0538 68.1461 30.8845 68.0599 30.7153C67.8874 30.5461 67.7148 30.5461 67.456 30.4615H66.5072V31.9845H67.456Z" fill="#007B39"/>
<path d="M71.9416 33.1692H70.3027L69.8713 34.1845H69.095L70.734 29.9538H71.4241L73.063 34.1845H72.2867L71.9416 33.1692ZM70.4752 32.5769H71.7691L71.1653 30.7999L70.4752 32.5769Z" fill="#007B39"/>
<path d="M76.5997 30.4615H75.3058V34.1845H74.5294V30.4615H73.2355V29.8692H76.5997V30.4615Z" fill="#007B39"/>
<path d="M80.9128 32.1538C80.9128 32.5769 80.8265 32.9153 80.654 33.2538C80.4814 33.5922 80.3089 33.8461 80.0501 34.0153C79.7914 34.1846 79.4463 34.2692 79.1013 34.2692C78.7562 34.2692 78.4112 34.1846 78.1524 34.0153C77.8936 33.8461 77.6348 33.5922 77.5486 33.2538C77.3761 32.9153 77.2898 32.5769 77.2898 32.1538V31.8999C77.2898 31.4769 77.3761 31.1384 77.5486 30.7999C77.7211 30.4615 77.8936 30.2076 78.1524 30.0384C78.4112 29.8692 78.7562 29.7846 79.1013 29.7846C79.4463 29.7846 79.7914 29.8692 80.0501 30.0384C80.3089 30.2076 80.5677 30.4615 80.654 30.7153C80.8265 31.0538 80.9128 31.3922 80.9128 31.8153V32.1538ZM80.1364 31.8999C80.1364 31.3922 80.0501 31.0538 79.8776 30.7999C79.7051 30.5461 79.4463 30.4615 79.1013 30.4615C78.7562 30.4615 78.4974 30.5461 78.3249 30.7999C78.1524 31.0538 78.0661 31.3922 78.0661 31.8999V32.1538C78.0661 32.6615 78.1524 32.9999 78.3249 33.2538C78.4974 33.5076 78.7562 33.6769 79.1013 33.6769C79.4463 33.6769 79.7051 33.5922 79.8776 33.3384C80.0501 33.0846 80.1364 32.7461 80.1364 32.2384V31.8999Z" fill="#007B39"/>
<path d="M82.7242 32.5769V34.1845H81.9479V29.9538H83.5868C84.1044 29.9538 84.4495 30.0384 84.7082 30.2922C84.967 30.5461 85.1395 30.8846 85.1395 31.3076C85.1395 31.7307 84.967 32.0692 84.7082 32.2384C84.4495 32.4922 84.0182 32.5769 83.5006 32.5769H82.7242ZM83.5868 31.9845C83.8456 31.9845 84.0181 31.8999 84.1907 31.8153C84.3632 31.7307 84.3632 31.4769 84.3632 31.3076C84.3632 31.0538 84.2769 30.8845 84.1907 30.7153C84.0181 30.5461 83.8456 30.5461 83.5868 30.4615H82.638V31.9845H83.5868Z" fill="#007B39"/>
<path d="M88.7625 29.8692H89.5389V34.1845H88.7625V31.1384L86.8647 34.1845H86.1747V29.8692H86.8647V32.9153L88.7625 29.8692Z" fill="#007B39"/>
<path d="M92.903 34.1845V32.5769H92.0404L91.1778 34.1845H90.4015L91.3503 32.4076C90.8328 32.1538 90.574 31.8153 90.574 31.223C90.574 30.7999 90.7465 30.4615 91.0053 30.2922C91.2641 30.0384 91.6954 29.9538 92.1267 29.9538H93.5931V34.1845H92.903ZM91.3503 31.223C91.3503 31.4769 91.4366 31.6461 91.5228 31.8153C91.6954 31.9846 91.8679 31.9845 92.1267 31.9845H92.8168V30.4615H92.1267C91.8679 30.4615 91.6091 30.5461 91.5228 30.6307C91.4366 30.7999 91.3503 30.9692 91.3503 31.223Z" fill="#007B39"/>
<path d="M100.063 34.1845H99.3726V30.4615H97.4749V34.1845H96.6985V29.8692H100.063V34.1845Z" fill="#007B39"/>
<path d="M102.047 32.5769V34.1845H101.27V29.9538H102.909C103.427 29.9538 103.772 30.0384 104.031 30.2922C104.289 30.5461 104.462 30.8846 104.462 31.3076C104.462 31.7307 104.289 32.0692 104.031 32.2384C103.772 32.4922 103.341 32.5769 102.823 32.5769H102.047ZM102.909 31.9845C103.168 31.9845 103.341 31.8999 103.513 31.8153C103.686 31.7307 103.686 31.4769 103.686 31.3076C103.686 31.0538 103.599 30.8845 103.513 30.7153C103.341 30.5461 103.168 30.5461 102.909 30.4615H101.96V31.9845H102.909Z" fill="#007B39"/>
<path d="M108.948 32.1538C108.948 32.5769 108.861 32.9153 108.689 33.2538C108.516 33.5922 108.344 33.8461 108.085 34.0153C107.826 34.1846 107.481 34.2692 107.136 34.2692C106.791 34.2692 106.446 34.1846 106.187 34.0153C105.928 33.8461 105.67 33.5922 105.583 33.2538C105.411 32.9153 105.325 32.5769 105.325 32.1538V31.8999C105.325 31.4769 105.411 31.1384 105.583 30.7999C105.756 30.4615 105.928 30.2076 106.187 30.0384C106.446 29.8692 106.791 29.7846 107.136 29.7846C107.481 29.7846 107.826 29.8692 108.085 30.0384C108.344 30.2076 108.603 30.4615 108.689 30.7153C108.861 31.0538 108.948 31.3922 108.948 31.8153V32.1538ZM108.171 31.8999C108.171 31.3922 108.085 31.0538 107.912 30.7999C107.74 30.5461 107.481 30.4615 107.136 30.4615C106.791 30.4615 106.532 30.5461 106.36 30.7999C106.187 31.0538 106.101 31.3922 106.101 31.8999V32.1538C106.101 32.6615 106.187 32.9999 106.36 33.2538C106.532 33.5076 106.791 33.6769 107.136 33.6769C107.481 33.6769 107.74 33.5922 107.912 33.3384C108.085 33.0846 108.171 32.7461 108.171 32.2384V31.8999Z" fill="#007B39"/>
<path d="M112.398 30.2922C112.829 30.2922 113.088 30.3769 113.347 30.5461C113.606 30.7153 113.864 30.8846 113.951 31.1384C114.123 31.3922 114.209 31.7307 114.209 32.0692C114.209 32.4076 114.123 32.6615 113.951 32.9999C113.778 33.2538 113.606 33.5076 113.347 33.5922C113.088 33.7615 112.743 33.8461 112.484 33.8461H112.398V34.4384H111.708V33.8461H111.622C111.277 33.8461 111.018 33.7615 110.673 33.5922C110.414 33.423 110.155 33.2538 110.069 32.9999C109.896 32.7461 109.81 32.4076 109.81 32.1538C109.81 31.8153 109.896 31.5615 110.069 31.223C110.241 30.9692 110.414 30.7153 110.673 30.6307C110.932 30.4615 111.277 30.3769 111.622 30.3769H111.708V29.7846H112.398V30.2922ZM111.622 30.8846C111.277 30.8846 111.018 30.9692 110.845 31.223C110.673 31.3922 110.587 31.7307 110.587 32.0692C110.587 32.4076 110.673 32.6615 110.845 32.9153C111.018 33.0846 111.277 33.2538 111.622 33.2538H111.708L111.622 30.8846ZM112.398 30.8846V33.1692H112.484C112.829 33.1692 113.088 33.0845 113.261 32.8307C113.433 32.6615 113.519 32.323 113.519 31.9845C113.519 31.6461 113.433 31.3076 113.261 31.1384C113.088 30.9692 112.743 30.8846 112.398 30.8846Z" fill="#007B39"/>
<path d="M117.746 32.2384H115.935V33.5922H118.005V34.1845H115.158V29.8692H118.005V30.4615H115.935V31.6461H117.746V32.2384Z" fill="#007B39"/>
<path d="M122.232 32.7461C122.145 33.1692 122.059 33.5922 121.714 33.8461C121.455 34.0999 121.024 34.1845 120.507 34.1845C120.161 34.1845 119.816 34.0999 119.558 33.9307C119.299 33.7615 119.126 33.5076 118.954 33.2538C118.781 32.9999 118.695 32.5769 118.695 32.2384V31.8153C118.695 31.3922 118.781 31.0538 118.954 30.7153C119.126 30.3769 119.299 30.2076 119.558 30.0384C119.816 29.8692 120.161 29.7846 120.507 29.7846C121.024 29.7846 121.369 29.8692 121.628 30.123C121.887 30.3769 122.059 30.7153 122.145 31.223H121.369C121.369 30.8846 121.283 30.7153 121.11 30.5461C120.938 30.3769 120.765 30.3769 120.507 30.3769C120.161 30.3769 119.903 30.4615 119.73 30.7153C119.558 30.9692 119.471 31.3076 119.471 31.7307V32.1538C119.471 32.5769 119.558 32.9999 119.73 33.1692C119.903 33.423 120.161 33.5076 120.507 33.5076C120.765 33.5076 121.024 33.423 121.197 33.3384C121.369 33.1692 121.455 32.9999 121.455 32.6615H122.232V32.7461Z" fill="#007B39"/>
<path d="M126.545 32.7461C126.459 33.1692 126.372 33.5922 126.027 33.8461C125.768 34.0999 125.337 34.1845 124.82 34.1845C124.475 34.1845 124.129 34.0999 123.871 33.9307C123.612 33.7615 123.439 33.5076 123.267 33.2538C123.094 32.9999 123.008 32.5769 123.008 32.2384V31.8153C123.008 31.3922 123.094 31.0538 123.267 30.7153C123.439 30.3769 123.612 30.2076 123.871 30.0384C124.129 29.8692 124.475 29.7846 124.82 29.7846C125.337 29.7846 125.682 29.8692 125.941 30.123C126.2 30.3769 126.372 30.7153 126.459 31.223H125.682C125.682 30.8846 125.596 30.7153 125.423 30.5461C125.251 30.3769 125.078 30.3769 124.82 30.3769C124.475 30.3769 124.216 30.4615 124.043 30.7153C123.871 30.9692 123.784 31.3076 123.784 31.7307V32.1538C123.784 32.5769 123.871 32.9999 124.043 33.1692C124.216 33.423 124.475 33.5076 124.82 33.5076C125.078 33.5076 125.337 33.423 125.51 33.3384C125.682 33.1692 125.768 32.9999 125.768 32.6615H126.545V32.7461Z" fill="#007B39"/>
<path d="M130.168 29.8692H130.944V34.1845H130.168V31.1384L128.27 34.1845H127.494V29.8692H128.27V32.9153L130.168 29.8692Z" fill="#007B39"/>
<path d="M135.602 32.1538C135.602 32.5769 135.516 32.9153 135.343 33.2538C135.171 33.5922 134.998 33.8461 134.74 34.0153C134.481 34.1846 134.136 34.2692 133.791 34.2692C133.446 34.2692 133.101 34.1846 132.842 34.0153C132.583 33.8461 132.324 33.5922 132.238 33.2538C132.065 32.9153 131.979 32.5769 131.979 32.1538V31.8999C131.979 31.4769 132.065 31.1384 132.238 30.7999C132.411 30.4615 132.583 30.2076 132.842 30.0384C133.101 29.8692 133.446 29.7846 133.791 29.7846C134.136 29.7846 134.481 29.8692 134.74 30.0384C134.998 30.2076 135.257 30.4615 135.343 30.7153C135.516 31.0538 135.602 31.3922 135.602 31.8153V32.1538ZM134.826 31.8999C134.826 31.3922 134.74 31.0538 134.567 30.7999C134.395 30.5461 134.136 30.4615 133.791 30.4615C133.446 30.4615 133.187 30.5461 133.014 30.7999C132.842 31.0538 132.756 31.3922 132.756 31.8999V32.1538C132.756 32.6615 132.842 32.9999 133.014 33.2538C133.187 33.5076 133.446 33.6769 133.791 33.6769C134.136 33.6769 134.395 33.5922 134.567 33.3384C134.74 33.0846 134.826 32.7461 134.826 32.2384V31.8999Z" fill="#007B39"/>
<path d="M140.088 34.1845H139.311V32.2384H137.414V34.1845H136.637V29.8692H137.414V31.6461H139.311V29.8692H140.088V34.1845Z" fill="#007B39"/>
<path d="M143.711 33.1692H142.072L141.727 34.1845H140.95L142.589 29.9538H143.279L144.918 34.1845H144.056L143.711 33.1692ZM142.244 32.5769H143.538L142.934 30.7999L142.244 32.5769Z" fill="#007B39"/>
<path d="M149.145 34.0999H148.369V30.4615H147.075L146.989 32.0692C146.989 32.5769 146.902 32.9999 146.816 33.2538C146.73 33.5076 146.557 33.7615 146.385 33.8461C146.212 34.0153 145.954 34.0153 145.608 34.0153H145.436V33.423H145.522C145.695 33.423 145.867 33.3384 145.954 33.2538C146.04 33.1692 146.126 32.9999 146.126 32.7461C146.212 32.5769 146.212 32.2384 146.212 31.8153L146.299 29.6999H149.145V34.0999Z" fill="#007B39"/>
<path d="M151.043 31.5615H151.906C152.251 31.5615 152.509 31.6461 152.768 31.7307C153.027 31.8153 153.199 31.9845 153.286 32.1538C153.372 32.323 153.458 32.5769 153.458 32.8307C153.458 33.2538 153.286 33.5076 153.027 33.7615C152.768 34.0153 152.337 34.0999 151.906 34.0999H150.267V29.8692H151.043V31.5615ZM151.043 32.1538V33.5922H151.906C152.164 33.5922 152.337 33.5076 152.509 33.423C152.682 33.2538 152.682 33.0846 152.682 32.9153C152.682 32.6615 152.596 32.4922 152.509 32.4076C152.337 32.323 152.164 32.2384 151.906 32.2384H151.043V32.1538Z" fill="#007B39"/>
<path d="M157.944 34.1845H157.167V32.2384H155.183V34.1845H154.493V29.8692H155.183V31.6461H157.167V29.8692H157.944V34.1845Z" fill="#007B39"/>
<path d="M162.602 32.1538C162.602 32.5769 162.516 32.9153 162.343 33.2538C162.171 33.5922 161.998 33.8461 161.739 34.0153C161.48 34.1846 161.135 34.2692 160.79 34.2692C160.445 34.2692 160.1 34.1846 159.842 34.0153C159.583 33.8461 159.324 33.5922 159.238 33.2538C159.065 32.9153 158.979 32.5769 158.979 32.1538V31.8999C158.979 31.4769 159.065 31.1384 159.238 30.7999C159.41 30.4615 159.583 30.2076 159.842 30.0384C160.1 29.8692 160.445 29.7846 160.79 29.7846C161.135 29.7846 161.48 29.8692 161.739 30.0384C161.998 30.2076 162.257 30.4615 162.343 30.7153C162.516 31.0538 162.602 31.3922 162.602 31.8153V32.1538ZM161.826 31.8999C161.826 31.3922 161.739 31.0538 161.567 30.7999C161.394 30.5461 161.135 30.4615 160.79 30.4615C160.445 30.4615 160.187 30.5461 160.014 30.7999C159.842 31.0538 159.755 31.3922 159.755 31.8999V32.1538C159.755 32.6615 159.842 32.9999 160.014 33.2538C160.187 33.5076 160.445 33.6769 160.79 33.6769C161.135 33.6769 161.394 33.5922 161.567 33.3384C161.739 33.0846 161.826 32.7461 161.826 32.2384V31.8999Z" fill="#007B39"/>
<path d="M166.397 30.4615H164.413V34.1845H163.637V29.8692H166.397V30.4615Z" fill="#007B39"/>
<path d="M170.538 32.1538C170.538 32.5769 170.452 32.9153 170.279 33.2538C170.107 33.5922 169.934 33.8461 169.675 34.0153C169.416 34.1846 169.071 34.2692 168.726 34.2692C168.381 34.2692 168.036 34.1846 167.778 34.0153C167.519 33.8461 167.26 33.5922 167.174 33.2538C167.001 32.9153 166.915 32.5769 166.915 32.1538V31.8999C166.915 31.4769 167.001 31.1384 167.174 30.7999C167.346 30.4615 167.519 30.2076 167.778 30.0384C168.036 29.8692 168.381 29.7846 168.726 29.7846C169.071 29.7846 169.416 29.8692 169.675 30.0384C169.934 30.2076 170.193 30.4615 170.279 30.7153C170.452 31.0538 170.538 31.3922 170.538 31.8153V32.1538ZM169.848 31.8999C169.848 31.3922 169.762 31.0538 169.589 30.7999C169.416 30.5461 169.158 30.4615 168.813 30.4615C168.468 30.4615 168.209 30.5461 168.036 30.7999C167.864 31.0538 167.778 31.3922 167.778 31.8999V32.1538C167.778 32.6615 167.864 32.9999 168.036 33.2538C168.209 33.5076 168.468 33.6769 168.813 33.6769C169.158 33.6769 169.416 33.5922 169.589 33.3384C169.762 33.0846 169.848 32.7461 169.848 32.2384V31.8999Z" fill="#007B39"/>
<path d="M51.4115 41.6307C51.3252 42.0538 51.239 42.4769 50.8939 42.7307C50.6352 42.9845 50.2039 43.1538 49.6863 43.1538C49.3412 43.1538 48.9962 43.0692 48.7374 42.8999C48.4786 42.7307 48.3061 42.4769 48.1336 42.223C47.9611 41.9692 47.8748 41.5461 47.8748 41.2076V40.7845C47.8748 40.3615 47.9611 40.023 48.1336 39.6846C48.3061 39.3461 48.4786 39.1769 48.7374 39.0076C48.9962 38.8384 49.3412 38.7538 49.6863 38.7538C50.2039 38.7538 50.5489 38.8384 50.8077 39.0922C51.0665 39.3461 51.239 39.6845 51.3252 40.1922H50.5489C50.5489 39.8538 50.4626 39.6845 50.2901 39.5153C50.1176 39.3461 49.9451 39.3461 49.6863 39.3461C49.3412 39.3461 49.0825 39.4307 48.9099 39.6846C48.7374 39.9384 48.6512 40.2769 48.6512 40.6999V41.0384C48.6512 41.4615 48.7374 41.8845 48.9099 42.0538C49.0825 42.3076 49.3412 42.3922 49.6863 42.3922C49.9451 42.3922 50.2039 42.3076 50.3764 42.223C50.5489 42.0538 50.6352 41.8845 50.6352 41.5461H51.4115V41.6307Z" fill="#007B39"/>
<path d="M55.8971 40.9538C55.8971 41.3769 55.8108 41.7153 55.6383 42.0538C55.4658 42.3922 55.2933 42.6461 55.0345 42.8153C54.7757 42.9845 54.4306 43.0692 54.0856 43.0692C53.7406 43.0692 53.3955 42.9845 53.1367 42.8153C52.8779 42.6461 52.6192 42.3922 52.5329 42.0538C52.3604 41.7153 52.2741 41.3769 52.2741 40.9538V40.6999C52.2741 40.2769 52.3604 39.9384 52.5329 39.5999C52.7054 39.2615 52.8779 39.0076 53.1367 38.8384C53.3955 38.6692 53.7406 38.5845 54.0856 38.5845C54.4306 38.5845 54.7757 38.6692 55.0345 38.8384C55.2933 39.0076 55.552 39.2615 55.6383 39.5153C55.8108 39.8538 55.8971 40.1922 55.8971 40.6153V40.9538ZM55.1207 40.7845C55.1207 40.2769 55.0345 39.9384 54.8619 39.6846C54.6894 39.4307 54.4306 39.3461 54.0856 39.3461C53.7406 39.3461 53.4818 39.4307 53.3092 39.6846C53.1367 39.9384 53.0505 40.2769 53.0505 40.7845V41.0384C53.0505 41.5461 53.1367 41.8845 53.3092 42.1384C53.4818 42.3922 53.7406 42.5615 54.0856 42.5615C54.4306 42.5615 54.6894 42.4769 54.8619 42.223C55.0345 41.9692 55.1207 41.6307 55.1207 41.123V40.7845Z" fill="#007B39"/>
<path d="M56.9322 42.9845V38.7538H58.3986C58.9162 38.7538 59.2613 38.8384 59.52 39.0076C59.7788 39.1769 59.8651 39.5153 59.8651 39.8538C59.8651 40.023 59.7788 40.1922 59.6926 40.3615C59.6063 40.5307 59.4338 40.6153 59.2612 40.6999C59.52 40.7845 59.6926 40.8692 59.7788 41.0384C59.8651 41.2076 59.9513 41.3769 59.9513 41.6307C59.9513 42.0538 59.7788 42.3076 59.52 42.5615C59.2613 42.8153 58.9162 42.8999 58.3986 42.8999H56.9322V42.9845ZM57.7086 40.5307H58.4849C58.7437 40.5307 58.9162 40.4461 59.0025 40.3615C59.175 40.2769 59.175 40.1076 59.175 39.9384C59.175 39.7692 59.0887 39.5999 59.0025 39.5153C58.9162 39.4307 58.6574 39.3461 58.3986 39.3461H57.7086V40.5307ZM57.7086 41.123V42.4769H58.5712C58.83 42.4769 59.0025 42.3922 59.0887 42.3076C59.2613 42.223 59.2612 42.0538 59.2612 41.7999C59.2612 41.3769 59.0025 41.123 58.5712 41.123H57.7086Z" fill="#007B39"/>
<path d="M62.1079 38.7538L63.3155 41.9692L64.6094 38.7538H65.5583V42.9845H64.782V41.6307L64.8682 39.6846L63.5743 42.9845H63.0567L61.7628 39.7692L61.8491 41.6307V42.9845H61.0727V38.7538H62.1079Z" fill="#007B39"/>
<path d="M69.2675 41.123H67.456V42.3922H69.5263V42.9845H66.766V38.7538H69.5263V39.3461H67.456V40.5307H69.2675V41.123Z" fill="#007B39"/>
<path d="M71.2515 38.7538V42.3922H72.5454V38.7538H73.3218V42.3922H74.6157V38.7538H75.392V42.4769H75.9096L75.8234 43.9999H75.1333V42.9845H70.4752V38.7538H71.2515Z" fill="#007B39"/>
<path d="M79.3601 41.123H77.6348V42.3922H79.7051V42.9845H76.8585V38.7538H79.7051V39.3461H77.6348V40.5307H79.3601V41.123Z" fill="#007B39"/>
<path d="M84.0181 42.9845H83.3281V41.123H81.3441V42.9845H80.654V38.7538H81.3441V40.5307H83.3281V38.7538H84.0181V42.9845Z" fill="#007B39"/>
<path d="M87.8999 38.7538H88.6762V42.9845H87.8999V39.9384L86.0021 42.9845H85.2258V38.7538H86.0021V41.7999L87.8999 38.7538Z" fill="#007B39"/>
<path d="M92.0404 42.9845V41.3769H91.1778L90.3152 42.9845H89.5389L90.4877 41.2076C89.9702 40.9538 89.7114 40.6153 89.7114 40.023C89.7114 39.5999 89.8839 39.2615 90.1427 39.0922C90.4015 38.8384 90.8328 38.7538 91.2641 38.7538H92.7305V42.9845H92.0404ZM90.4877 40.1076C90.4877 40.3615 90.574 40.5307 90.6602 40.6999C90.8328 40.8692 91.0053 40.8692 91.2641 40.8692H91.9542V39.3461H91.2641C91.0053 39.3461 90.7465 39.4307 90.6602 39.5153C90.574 39.6845 90.4877 39.8538 90.4877 40.1076Z" fill="#007B39"/>
<path d="M48.2199 6.51532C48.7374 6.4307 49.1687 6.43071 49.6863 6.43071C50.2039 6.43071 50.6352 6.4307 51.1527 6.51532L54.2581 14.1307L57.4498 6.51532C57.8811 6.4307 58.3124 6.43071 58.7437 6.43071C59.2613 6.43071 59.6926 6.4307 60.1239 6.51532L60.7277 19.7999C60.2101 19.8846 59.7788 19.8846 59.3475 19.8846C58.9162 19.8846 58.4849 19.8846 58.0536 19.7999L57.7948 10.8307L55.0345 17.0922C54.8619 17.0922 54.6894 17.1769 54.5169 17.1769C54.3444 17.1769 54.1719 17.1769 53.9131 17.1769C53.7406 17.1769 53.568 17.1769 53.3955 17.1769C53.223 17.1769 53.0505 17.1769 52.8779 17.0922L50.2901 10.6615L50.0313 19.7999C49.6 19.8846 49.255 19.8846 48.8237 19.8846C48.3924 19.8846 47.9611 19.8846 47.616 19.7999L48.2199 6.51532Z" fill="#007B39"/>
<path d="M63.3155 6.51532H70.9927C71.079 6.85378 71.079 7.27686 71.079 7.61532C71.079 8.0384 71.079 8.37686 70.9927 8.79994H66.0759V11.6769H70.0439C70.1301 12.0999 70.1301 12.4384 70.1301 12.8615C70.1301 13.2846 70.1301 13.623 70.0439 14.0461H66.0759V17.5999H71.1653C71.2515 17.9384 71.2515 18.3615 71.2515 18.6999C71.2515 19.123 71.2515 19.4615 71.1653 19.8846H63.3155V6.51532Z" fill="#007B39"/>
<path d="M73.408 6.51532C73.9256 6.4307 74.5294 6.43071 75.047 6.34609C75.6508 6.34609 76.2547 6.26147 76.9448 6.26147C79.3601 6.26147 81.1715 6.85378 82.3792 8.0384C83.5868 9.22301 84.2769 10.9153 84.2769 13.2845C84.2769 15.6538 83.6731 17.3461 82.3792 18.4461C81.0853 19.5461 79.2738 20.0538 76.7722 20.0538C76.1684 20.0538 75.5646 20.0538 74.9607 19.9692C74.4432 19.8846 73.8394 19.8846 73.3218 19.7999V6.51532H73.408ZM76.1684 17.6846C76.2547 17.6846 76.4272 17.6846 76.5997 17.6846C76.7722 17.6846 77.031 17.6846 77.2035 17.6846C77.8074 17.6846 78.3249 17.5999 78.8425 17.5153C79.3601 17.3461 79.7914 17.1769 80.1364 16.8384C80.4815 16.4999 80.8265 15.9922 80.999 15.4846C81.1715 14.8922 81.3441 14.1307 81.3441 13.2845C81.3441 12.3538 81.2578 11.6769 80.999 11.0846C80.8265 10.4922 80.4815 9.98455 80.1364 9.64609C79.7914 9.30763 79.3601 9.05378 78.8425 8.88455C78.4112 8.71532 77.8936 8.63071 77.3761 8.63071C77.2035 8.63071 77.031 8.63071 76.7722 8.63071C76.5134 8.63071 76.3409 8.6307 76.1684 8.71532V17.6846Z" fill="#007B39"/>
<path d="M86.5197 6.51532C86.951 6.4307 87.4686 6.43071 87.8999 6.43071C88.3312 6.43071 88.8488 6.4307 89.2801 6.51532V19.7999C88.7625 19.8846 88.3312 19.8846 87.8999 19.8846C87.4686 19.8846 86.951 19.8846 86.5197 19.7999V6.51532Z" fill="#007B39"/>
<path d="M100.925 17.3461C101.098 17.6846 101.184 18.023 101.357 18.4461C101.443 18.7846 101.529 19.2076 101.615 19.5461C100.925 19.7999 100.408 19.9692 99.8902 19.9692C99.3726 20.0538 98.7688 20.0538 98.165 20.0538C97.1298 20.0538 96.1809 19.8846 95.3183 19.5461C94.542 19.2076 93.8519 18.6999 93.2481 18.1076C92.7305 17.5153 92.2992 16.7538 92.0404 15.9076C91.7816 15.0615 91.6091 14.1307 91.6091 13.1999C91.6091 12.1846 91.7816 11.2538 92.0404 10.4076C92.2992 9.56147 92.7305 8.79994 93.3343 8.20763C93.8519 7.61532 94.542 7.10763 95.3183 6.76917C96.0947 6.43071 97.0435 6.26147 98.0787 6.26147C98.6825 6.26147 99.2001 6.26147 99.7176 6.34609C100.235 6.43071 100.753 6.59994 101.357 6.76917C101.357 7.10763 101.27 7.53071 101.098 7.86917C101.012 8.20763 100.839 8.54609 100.667 8.96917C100.235 8.79994 99.8039 8.71532 99.4589 8.63071C99.1138 8.54609 98.6825 8.54609 98.2512 8.54609C97.0435 8.54609 96.0947 8.96917 95.4908 9.73071C94.8008 10.4922 94.542 11.6769 94.542 13.1999C94.542 16.2461 95.8359 17.6846 98.4237 17.6846C98.855 17.6846 99.2863 17.6846 99.6314 17.5999C100.149 17.5999 100.494 17.5153 100.925 17.3461Z" fill="#007B39"/>
<path d="M106.791 6.51532C107.05 6.51532 107.309 6.43071 107.567 6.43071C107.826 6.43071 108.085 6.43071 108.344 6.43071C108.603 6.43071 108.861 6.43071 109.12 6.43071C109.379 6.43071 109.638 6.51532 109.896 6.51532L114.123 19.7999C113.606 19.8846 113.088 19.8846 112.571 19.8846C112.053 19.8846 111.622 19.8846 111.19 19.7999L110.414 17.0922H105.928L105.152 19.7999C104.721 19.8846 104.289 19.8846 103.858 19.8846C103.427 19.8846 102.909 19.8846 102.478 19.7999L106.791 6.51532ZM109.81 14.9769L108.257 9.39224L106.619 14.9769H109.81Z" fill="#007B39"/>
<path d="M115.676 6.51532C116.107 6.4307 116.625 6.43071 117.056 6.43071C117.487 6.43071 117.919 6.4307 118.436 6.51532V17.5153H123.181C123.181 17.6846 123.267 17.9384 123.267 18.1076C123.267 18.2769 123.267 18.4461 123.267 18.6153C123.267 18.7846 123.267 19.0384 123.267 19.2076C123.267 19.3769 123.267 19.6307 123.181 19.7999H115.762V6.51532H115.676Z" fill="#007B39"/>
<path d="M138.104 17.3461C138.276 17.6846 138.363 18.023 138.535 18.4461C138.621 18.7846 138.708 19.2076 138.794 19.5461C138.104 19.7999 137.586 19.9692 137.069 19.9692C136.551 20.0538 135.947 20.0538 135.343 20.0538C134.308 20.0538 133.359 19.8846 132.497 19.5461C131.72 19.2076 131.03 18.6999 130.427 18.1076C129.909 17.5153 129.478 16.7538 129.219 15.9076C128.96 15.0615 128.788 14.1307 128.788 13.1999C128.788 12.1846 128.96 11.2538 129.219 10.4076C129.478 9.56147 129.909 8.79994 130.513 8.20763C131.03 7.61532 131.72 7.10763 132.497 6.76917C133.273 6.43071 134.222 6.26147 135.257 6.26147C135.861 6.26147 136.465 6.26147 136.896 6.34609C137.414 6.43071 137.931 6.59994 138.535 6.76917C138.535 7.10763 138.449 7.53071 138.276 7.86917C138.104 8.20763 138.018 8.54609 137.845 8.96917C137.414 8.79994 136.982 8.71532 136.637 8.63071C136.292 8.54609 135.861 8.54609 135.43 8.54609C134.222 8.54609 133.273 8.96917 132.669 9.73071C132.066 10.4922 131.72 11.6769 131.72 13.1999C131.72 16.2461 133.014 17.6846 135.602 17.6846C136.033 17.6846 136.465 17.6846 136.81 17.5999C137.241 17.5999 137.672 17.5153 138.104 17.3461Z" fill="#007B39"/>
<path d="M143.969 6.51532C144.228 6.51532 144.487 6.43071 144.746 6.43071C145.005 6.43071 145.263 6.43071 145.522 6.43071C145.781 6.43071 146.04 6.43071 146.299 6.43071C146.557 6.43071 146.816 6.51532 147.075 6.51532L151.302 19.7999C150.784 19.8846 150.267 19.8846 149.749 19.8846C149.231 19.8846 148.8 19.8846 148.369 19.7999L147.592 17.0922H143.107L142.331 19.7999C141.899 19.8846 141.468 19.8846 141.037 19.8846C140.605 19.8846 140.088 19.8846 139.656 19.7999L143.969 6.51532ZM146.989 14.9769L145.436 9.39224L143.797 14.9769H146.989Z" fill="#007B39"/>
<path d="M155.27 13.7076C154.838 13.5384 154.493 13.3692 154.148 13.1999C153.803 13.0307 153.544 12.7769 153.286 12.523C153.027 12.2692 152.854 11.9307 152.768 11.5922C152.596 11.2538 152.596 10.7461 152.596 10.2384C152.596 9.64609 152.682 9.05378 152.941 8.54609C153.199 8.0384 153.458 7.69994 153.89 7.36147C154.321 7.02301 154.752 6.76917 155.356 6.59994C155.96 6.43071 156.564 6.34609 157.254 6.34609C157.858 6.34609 158.461 6.4307 159.065 6.51532C159.669 6.59994 160.187 6.76917 160.79 7.02301C160.704 7.69994 160.532 8.46147 160.187 9.1384C160.014 9.05378 159.842 8.96917 159.583 8.88455C159.41 8.79994 159.151 8.71532 158.979 8.71532C158.72 8.6307 158.548 8.63071 158.203 8.63071C157.944 8.63071 157.599 8.54609 157.254 8.54609C157.081 8.54609 156.822 8.54609 156.564 8.63071C156.305 8.63071 156.132 8.71532 155.96 8.79994C155.787 8.88455 155.615 9.05378 155.528 9.22301C155.442 9.39224 155.356 9.64609 155.356 9.98455C155.356 10.2384 155.442 10.4076 155.528 10.5769C155.615 10.7461 155.701 10.9153 155.874 10.9999C156.046 11.0846 156.219 11.2538 156.391 11.3384C156.564 11.423 156.736 11.5076 156.995 11.5922L158.116 12.0153C158.634 12.1846 159.065 12.3538 159.41 12.6076C159.755 12.7769 160.1 13.0307 160.359 13.3692C160.618 13.623 160.877 14.0461 160.963 14.3846C161.135 14.8076 161.222 15.3153 161.222 15.9076C161.222 16.4999 161.135 17.0922 160.877 17.5999C160.618 18.1076 160.273 18.5307 159.842 18.9538C159.41 19.2922 158.893 19.6307 158.203 19.7999C157.512 19.9692 156.822 20.1384 155.96 20.1384C155.528 20.1384 155.183 20.1384 154.838 20.1384C154.493 20.1384 154.235 20.0538 153.89 20.0538C153.631 19.9692 153.286 19.9692 153.027 19.7999C152.768 19.7153 152.423 19.6307 152.164 19.4615C152.164 19.123 152.251 18.6999 152.337 18.3615C152.423 17.9384 152.596 17.5999 152.682 17.1769C153.199 17.3461 153.717 17.5153 154.148 17.6846C154.58 17.7692 155.097 17.8538 155.615 17.8538C156.391 17.8538 156.995 17.6846 157.512 17.4307C157.944 17.1769 158.203 16.6692 158.203 16.0769C158.203 15.7384 158.116 15.5692 158.03 15.3153C157.944 15.1461 157.771 14.9769 157.599 14.8076C157.426 14.6384 157.254 14.5538 156.995 14.4692C156.822 14.3846 156.564 14.2999 156.305 14.2153L155.27 13.7076Z" fill="#007B39"/>
<path d="M163.206 6.51532H170.883C170.969 6.85378 170.969 7.27686 170.969 7.61532C170.969 8.0384 170.969 8.37686 170.883 8.79994H165.966V11.6769H169.934C170.02 12.0999 170.02 12.4384 170.02 12.8615C170.02 13.2846 170.02 13.623 169.934 14.0461H165.966V17.5999H171.055C171.142 17.9384 171.142 18.3615 171.142 18.6999C171.142 19.123 171.142 19.4615 171.055 19.8846H163.206V6.51532Z" fill="#007B39"/>
<path d="M20.542 24.9034H24V21.6487H20.542V18H17.4597V21.6487H14V24.9034H17.4597V29H20.542V24.9034Z" fill="url(#paint0_radial_0_13104)"/>
<path d="M4.07086 3.18742C1.52293 6.37833 0 10.3848 0 14.7427C0 21.742 3.92204 27.8455 9.73943 31.0858C11.1764 31.8872 12.728 32.5153 14.3665 32.9375C14.4494 32.958 14.5354 32.9772 14.6215 32.996C14.6259 32.9974 14.6291 32.9982 14.634 33V28.8357C14.2311 28.7138 13.8282 28.581 13.4522 28.4289C7.95792 26.1952 4.09642 20.9086 4.09642 14.7427C4.09642 11.0591 5.47675 7.69254 7.75761 5.09952C8.05514 4.82636 8.36484 4.56369 8.6835 4.30627C12.3421 5.37442 16.593 9.86422 17.3365 13.5395H21C20.8041 9.18291 17.2039 4.52479 12.4366 1.88675C10.8299 0.999097 9.09231 0.339152 7.30674 0C5.97431 0.988607 5.09897 1.89986 4.07086 3.18742Z" fill="url(#paint1_linear_0_13104)"/>
<path d="M33.4498 11.015C29.9497 11.1382 26.7107 12.2679 24 14.1212V18.0924C27.5763 15.7714 30.1268 14.7894 34.0818 14.7894C34.1182 14.7894 34.1499 14.7915 34.1875 14.7915C34.2016 15.0511 34.2094 15.3121 34.2094 15.576C34.2094 21.9998 29.8954 27.1164 24.0059 28.7962C24.0034 28.7962 24.0025 28.7966 24 28.7966V33C32.0078 31.236 38 24.1094 38 15.576C38 15.4977 37.9957 15.4216 37.9949 15.3458C37.9786 13.9622 37.8053 12.6182 37.4887 11.3281C37.4792 11.326 37.4694 11.3251 37.46 11.3238C36.368 11.1138 35.2363 11 34.0818 11C33.8705 11 33.66 11.0078 33.4498 11.015Z" fill="url(#paint2_linear_0_13104)"/>
<defs>
<radialGradient id="paint0_radial_0_13104" cx="0" cy="0" r="1" gradientUnits="userSpaceOnUse" gradientTransform="translate(18.9999 23.5) scale(5.10678 5.38961)">
<stop stop-color="#F28E58"/>
<stop offset="0.00128585" stop-color="#F28E58"/>
<stop offset="0.147935" stop-color="#F28E58"/>
<stop offset="1" stop-color="#E41F25"/>
</radialGradient>
<linearGradient id="paint1_linear_0_13104" x1="18.9312" y1="-3.11771" x2="4.83492" y2="28.7295" gradientUnits="userSpaceOnUse">
<stop stop-color="#C8D647"/>
<stop offset="0.00127611" stop-color="#C8D647"/>
<stop offset="1" stop-color="#007F42"/>
</linearGradient>
<linearGradient id="paint2_linear_0_13104" x1="36.2297" y1="5.26529" x2="22.2042" y2="36.1764" gradientUnits="userSpaceOnUse">
<stop stop-color="#C8D647"/>
<stop offset="0.00127611" stop-color="#C8D647"/>
<stop offset="1" stop-color="#007F42"/>
</linearGradient>
</defs>
</svg>
