<svg width="108" height="63" viewBox="0 0 108 63" fill="none" xmlns="http://www.w3.org/2000/svg">
<path d="M55.5069 26.9745H59.4724V23.4432H55.5069V19.4843H51.9725V23.4432H48.0051V26.9745H51.9725V31.4194H55.5069V26.9745Z" fill="url(#paint0_radial_1205_1786)"/>
<path d="M37.65 3.65048C34.9483 7.11536 33.3334 11.4658 33.3334 16.1978C33.3334 23.7981 37.4923 30.4256 43.661 33.9441C45.1846 34.8145 46.8299 35.4964 48.5674 35.9549C48.6554 35.9772 48.7466 35.9981 48.8379 36.0185C48.8426 36.0199 48.8459 36.0209 48.8512 36.0228V31.501C48.4239 31.3686 47.9967 31.2243 47.5979 31.0592C41.7719 28.6336 37.6771 22.8931 37.6771 16.1978C37.6771 12.1981 39.1409 8.54241 41.5594 5.72675C41.875 5.43014 42.2034 5.14493 42.5413 4.8654C46.4207 6.02527 50.9285 10.9006 51.7169 14.8913H55.6016C55.3939 10.1607 51.5762 5.10269 46.521 2.23814C44.8173 1.27428 42.9747 0.55767 41.0813 0.189397C39.6684 1.26289 38.7403 2.25238 37.65 3.65048Z" fill="url(#paint1_linear_1205_1786)"/>
<path d="M69.0901 11.6907C65.2025 11.8274 61.6049 13.0807 58.5942 15.1371V19.543C62.5664 16.968 65.3993 15.8784 69.792 15.8784C69.8324 15.8784 69.8676 15.8807 69.9094 15.8807C69.9251 16.1688 69.9336 16.4583 69.9336 16.7511C69.9336 23.8783 65.1422 29.5552 58.6009 31.4188C58.598 31.4188 58.5971 31.4193 58.5942 31.4193V36.083C67.4885 34.1258 74.1438 26.2189 74.1438 16.7511C74.1438 16.6643 74.1391 16.5798 74.1381 16.4958C74.1201 14.9605 73.9276 13.4694 73.5759 12.0381C73.5655 12.0357 73.5545 12.0348 73.5441 12.0333C72.3313 11.8003 71.0742 11.6741 69.792 11.6741C69.5572 11.6741 69.3234 11.6826 69.0901 11.6907Z" fill="url(#paint2_linear_1205_1786)"/>
<path d="M0.529445 44.1974C0.968574 44.1304 1.39202 44.0986 1.79931 44.0986C2.2275 44.0986 2.65095 44.1304 3.06869 44.1974L5.79091 50.9819L8.59344 44.1974C8.93372 44.1304 9.31249 44.0986 9.73214 44.0986C10.1485 44.0986 10.55 44.1304 10.9359 44.1974L11.4958 56.038C11.079 56.1059 10.6826 56.1367 10.3091 56.1367C9.93554 56.1367 9.56723 56.1059 9.20366 56.038L8.90663 48.0011L6.49808 53.5679C6.34552 53.5921 6.18489 53.6096 6.0214 53.6267C5.85697 53.6428 5.69206 53.6514 5.5262 53.6514C5.3841 53.6514 5.24057 53.6438 5.09752 53.6343C4.95305 53.6224 4.80667 53.6011 4.65269 53.5679L2.41 47.8862L2.17808 56.038C1.82592 56.1059 1.48564 56.1367 1.15487 56.1367C0.804138 56.1367 0.440099 56.1059 0.0675049 56.038L0.529445 44.1974Z" fill="#007F42"/>
<path d="M13.673 44.1974H20.4025C20.4681 44.5267 20.5013 44.8622 20.5013 45.2016C20.5013 45.5646 20.4681 45.9106 20.4025 46.2404H16.0811V48.8093H19.5119C19.5774 49.1614 19.6093 49.5017 19.6093 49.8311C19.6093 50.1818 19.5774 50.5268 19.5119 50.868H16.0811V53.9959H20.517C20.5845 54.3262 20.6163 54.6622 20.6163 55.0016C20.6163 55.3641 20.5845 55.7101 20.517 56.038H13.673V44.1974Z" fill="#007F42"/>
<path d="M24.9032 54.1296C25.0035 54.1396 25.1295 54.1515 25.2834 54.16C25.4379 54.1724 25.6237 54.1776 25.8447 54.1776C26.3494 54.1776 26.8194 54.1216 27.2548 54.0053C27.6877 53.89 28.0636 53.6793 28.384 53.3713C28.7024 53.0647 28.9566 52.6528 29.1429 52.1355C29.3292 51.6196 29.4228 50.9557 29.4228 50.1427C29.4228 49.3507 29.3292 48.6948 29.1429 48.1671C28.9566 47.6398 28.7024 47.2212 28.384 46.9156C28.0636 46.6081 27.6991 46.3917 27.2871 46.264C26.8746 46.1382 26.4392 46.0766 25.9759 46.0766C25.8219 46.0766 25.6451 46.078 25.4388 46.0841C25.2354 46.0903 25.0586 46.1027 24.9032 46.1254V54.1296ZM22.479 44.1972C22.9414 44.1431 23.4247 44.0966 23.9309 44.0572C24.437 44.0188 24.9969 44.0003 25.6128 44.0003C27.6915 44.0003 29.2712 44.5157 30.3562 45.5469C31.4379 46.581 31.9792 48.1286 31.9792 50.1926C31.9792 52.2669 31.4293 53.7941 30.3306 54.7708C29.2299 55.7494 27.5974 56.2353 25.4322 56.2353C24.8714 56.2353 24.3553 56.2183 23.8815 56.1798C23.4086 56.1409 22.9414 56.092 22.479 56.0379V44.1972Z" fill="#007F42"/>
<path d="M33.9762 44.1974C34.3821 44.1304 34.7836 44.0986 35.1786 44.0986C35.574 44.0986 35.9822 44.1304 36.3985 44.1974V56.038C35.9822 56.1059 35.5792 56.1367 35.1957 56.1367C34.7889 56.1367 34.3821 56.1059 33.9762 56.038V44.1974Z" fill="#007F42"/>
<path d="M46.5421 53.7996C46.6842 54.1057 46.8034 54.4213 46.8961 54.7459C46.9912 55.071 47.0572 55.3961 47.1009 55.7269C46.5306 55.9352 46.016 56.0719 45.5597 56.1369C45.104 56.2043 44.6126 56.2356 44.0836 56.2356C43.1488 56.2356 42.3309 56.0843 41.6261 55.7853C40.9232 55.482 40.3325 55.0592 39.853 54.5158C39.3749 53.9719 39.0137 53.3284 38.7722 52.5809C38.5318 51.8335 38.4125 51.0205 38.4125 50.1426C38.4125 49.2646 38.5384 48.4497 38.7898 47.6971C39.0431 46.9444 39.4086 46.2952 39.8853 45.7466C40.3648 45.197 40.9541 44.7689 41.6532 44.46C42.3508 44.1544 43.1431 44.0006 44.0342 44.0006C44.5617 44.0006 45.0474 44.0338 45.4951 44.0988C45.9394 44.1638 46.4204 44.3019 46.9375 44.5108C46.9161 44.8396 46.8491 45.1609 46.7393 45.4751C46.629 45.7869 46.5074 46.1025 46.3762 46.4214C45.9922 46.288 45.6505 46.1955 45.3544 46.1405C45.0569 46.0845 44.7047 46.0588 44.2975 46.0588C43.2438 46.0588 42.4326 46.4015 41.8656 47.0877C41.2996 47.7749 41.0173 48.791 41.0173 50.1426C41.0173 52.8215 42.1555 54.1603 44.4305 54.1603C44.8378 54.1603 45.1938 54.1333 45.5017 54.0806C45.8097 54.0255 46.1557 53.9302 46.5421 53.7996Z" fill="#007F42"/>
<path d="M54.292 51.6756L52.9247 46.7011L51.4895 51.6756H54.292ZM51.6539 44.1972C51.8849 44.164 52.104 44.1412 52.3141 44.126C52.5217 44.108 52.7518 44.0985 53.006 44.0985C53.2261 44.0985 53.4404 44.108 53.649 44.126C53.8581 44.1412 54.0901 44.164 54.3424 44.1972L58.0522 56.0379C57.6012 56.1057 57.1621 56.1366 56.7353 56.1366C56.3156 56.1366 55.9098 56.1057 55.5125 56.0379L54.8538 53.6664H50.9282L50.2529 56.0379C49.8561 56.1057 49.4778 56.1366 49.1133 56.1366C48.7079 56.1366 48.3058 56.1057 47.9109 56.0379L51.6539 44.1972Z" fill="#007F42"/>
<path d="M59.3889 44.1974C59.7948 44.1304 60.1864 44.0986 60.5595 44.0986C60.9435 44.0986 61.3446 44.1304 61.7633 44.1974V53.9646H65.8708C65.9031 54.1516 65.9236 54.33 65.9364 54.4995C65.9469 54.6698 65.9526 54.8317 65.9526 54.985C65.9526 55.1624 65.9469 55.3333 65.9364 55.5027C65.9236 55.6745 65.9031 55.8525 65.8708 56.038H59.3889V44.1974Z" fill="#007F42"/>
<path d="M78.9808 53.7996C79.1248 54.1057 79.2417 54.4213 79.3353 54.7459C79.4299 55.071 79.4979 55.3961 79.5406 55.7269C78.9699 55.9352 78.4561 56.0719 77.9999 56.1369C77.5441 56.2043 77.0508 56.2356 76.5228 56.2356C75.5871 56.2356 74.7696 56.0843 74.0648 55.7853C73.3634 55.482 72.7726 55.0592 72.2941 54.5158C71.815 53.9719 71.4557 53.3284 71.2134 52.5809C70.971 51.8335 70.8522 51.0205 70.8522 50.1426C70.8522 49.2646 70.9757 48.4497 71.229 47.6971C71.4828 46.9444 71.8473 46.2952 72.3264 45.7466C72.8064 45.197 73.3928 44.7689 74.091 44.46C74.7891 44.1544 75.5837 44.0006 76.4729 44.0006C77.0019 44.0006 77.489 44.0338 77.9338 44.0988C78.381 44.1638 78.8582 44.3019 79.3762 44.5108C79.3548 44.8396 79.2888 45.1609 79.1776 45.4751C79.0682 45.7869 78.9485 46.1025 78.8164 46.4214C78.4305 46.288 78.0897 46.1955 77.7946 46.1405C77.4957 46.0845 77.1449 46.0588 76.7391 46.0588C75.6831 46.0588 74.8709 46.4015 74.3063 47.0877C73.7393 47.7749 73.457 48.791 73.457 50.1426C73.457 52.8215 74.5943 54.1603 76.8702 54.1603C77.2775 54.1603 77.633 54.1333 77.941 54.0806C78.2494 54.0255 78.5963 53.9302 78.9808 53.7996Z" fill="#007F42"/>
<path d="M86.7332 51.6756L85.3631 46.7011L83.9273 51.6756H86.7332ZM84.0932 44.1972C84.3237 44.164 84.5452 44.1412 84.7543 44.126C84.961 44.108 85.1944 44.0985 85.4458 44.0985C85.6639 44.0985 85.8792 44.108 86.0873 44.126C86.2979 44.1412 86.5279 44.164 86.7807 44.1972L90.4915 56.0379C90.0405 56.1057 89.6004 56.1366 89.1727 56.1366C88.7549 56.1366 88.3471 56.1057 87.9517 56.0379L87.2911 53.6664H83.3675L82.6917 56.0379C82.2934 56.1057 81.9147 56.1366 81.5549 56.1366C81.1471 56.1366 80.7441 56.1057 80.3478 56.0379L84.0932 44.1972Z" fill="#007F42"/>
<path d="M93.9891 50.555C93.6141 50.4107 93.2772 50.2569 92.9821 50.0847C92.685 49.9148 92.4317 49.7131 92.2226 49.4763C92.0159 49.2399 91.8524 48.9566 91.7374 48.6268C91.6224 48.2974 91.5634 47.9026 91.5634 47.4408C91.5634 46.8813 91.6604 46.3877 91.8524 45.9615C92.0434 45.5316 92.3158 45.1719 92.6693 44.8809C93.0191 44.591 93.4426 44.3712 93.9383 44.2217C94.4339 44.0746 94.9895 44.0001 95.604 44.0001C96.1657 44.0001 96.6914 44.049 97.1794 44.1487C97.6694 44.245 98.1836 44.3916 98.7221 44.5758C98.6551 45.2127 98.4797 45.8391 98.1931 46.4537C98.0297 46.3877 97.8624 46.3227 97.6908 46.2572C97.5192 46.1908 97.3382 46.1352 97.1462 46.0925C96.9528 46.0484 96.7356 46.0128 96.4941 45.9838C96.2522 45.9573 95.9794 45.943 95.6729 45.943C95.4838 45.943 95.2951 45.9615 95.1021 45.9938C94.9082 46.0256 94.7352 46.0845 94.5813 46.1732C94.4273 46.262 94.3028 46.392 94.2025 46.5609C94.1022 46.7308 94.0542 46.9529 94.0542 47.2277C94.0542 47.4474 94.0922 47.6302 94.1692 47.7801C94.2462 47.9272 94.3512 48.0549 94.4819 48.1588C94.6145 48.2632 94.7633 48.3501 94.9277 48.4232C95.0945 48.4934 95.259 48.5627 95.4225 48.6268L96.4129 49.006C96.8311 49.1711 97.2089 49.3405 97.5497 49.5171C97.8914 49.6936 98.1779 49.9105 98.4165 50.1691C98.6518 50.4259 98.8371 50.7401 98.9683 51.1059C99.1009 51.4742 99.166 51.9284 99.166 52.4632C99.166 53.0256 99.0638 53.5353 98.8623 53.9961C98.6589 54.4574 98.3628 54.8527 97.9779 55.183C97.5934 55.5133 97.1191 55.7687 96.5531 55.9575C95.9856 56.1431 95.335 56.2356 94.5989 56.2356C94.2367 56.2356 93.9102 56.2247 93.6251 56.2043C93.3385 56.1806 93.0676 56.1459 92.8086 56.0971C92.5515 56.0468 92.2944 55.9841 92.0425 55.9063C91.7901 55.8289 91.5254 55.7364 91.2507 55.6263C91.2826 55.3088 91.3439 54.9775 91.4328 54.6302C91.5202 54.2847 91.6229 53.9358 91.7455 53.5847C92.2069 53.7707 92.6404 53.9112 93.0481 54.0056C93.4535 54.0972 93.8888 54.1432 94.3512 54.1432C95.0446 54.1432 95.5874 54.0156 95.9847 53.7579C96.381 53.4988 96.5778 53.1063 96.5778 52.5809C96.5778 52.3175 96.5298 52.0973 96.4376 51.9217C96.344 51.7457 96.2213 51.5976 96.075 51.4761C95.9272 51.3561 95.7575 51.2554 95.5707 51.1724C95.3844 51.0898 95.191 51.0115 94.9933 50.9323L93.9891 50.555Z" fill="#007F42"/>
<path d="M100.898 44.1974H107.626C107.691 44.5267 107.727 44.8622 107.727 45.2016C107.727 45.5646 107.691 45.9106 107.626 46.2404H103.305V48.8093H106.736C106.802 49.1614 106.835 49.5017 106.835 49.8311C106.835 50.1818 106.802 50.5268 106.736 50.868H103.305V53.9959H107.741C107.808 54.3262 107.84 54.6622 107.84 55.0016C107.84 55.3641 107.808 55.7101 107.741 56.038H100.898V44.1974Z" fill="#007F42"/>
<defs>
<radialGradient id="paint0_radial_1205_1786" cx="0" cy="0" r="1" gradientUnits="userSpaceOnUse" gradientTransform="translate(53.7386 25.4518) scale(5.85605 5.84778)">
<stop stop-color="#F28E58"/>
<stop offset="0.00128585" stop-color="#F28E58"/>
<stop offset="0.147935" stop-color="#F28E58"/>
<stop offset="1" stop-color="#E41F25"/>
</radialGradient>
<linearGradient id="paint1_linear_1205_1786" x1="53.4078" y1="-3.19599" x2="37.8575" y2="31.1124" gradientUnits="userSpaceOnUse">
<stop stop-color="#C8D647"/>
<stop offset="0.00127611" stop-color="#C8D647"/>
<stop offset="1" stop-color="#007F42"/>
</linearGradient>
<linearGradient id="paint2_linear_1205_1786" x1="72.1776" y1="5.31142" x2="56.6273" y2="39.6197" gradientUnits="userSpaceOnUse">
<stop stop-color="#C8D647"/>
<stop offset="0.00127611" stop-color="#C8D647"/>
<stop offset="1" stop-color="#007F42"/>
</linearGradient>
</defs>
</svg>
