<svg width="32" height="32" viewBox="0 0 32 32" fill="none" xmlns="http://www.w3.org/2000/svg">
<path d="M0.432617 10C0.432617 4.47716 4.90977 0 10.4326 0H26.4459C29.2073 0 31.4459 2.23858 31.4459 5V21.4058C31.4459 26.9287 26.9687 31.4058 21.4459 31.4058H5.43262C2.6712 31.4058 0.432617 29.1673 0.432617 26.4058V10Z" fill="#B1D30A"/>
<path fill-rule="evenodd" clip-rule="evenodd" d="M17.6401 8.2984H18.7674V11.9618C18.7674 12.4472 18.7364 12.9481 19.331 12.9481C19.7045 12.9481 19.7538 12.5845 19.7538 11.8209V8.2984H20.8811V13.6526H19.7538V13.3708L19.331 13.2299C19.2732 13.3917 19.1764 13.5369 19.0492 13.6526C18.927 13.7436 18.7788 13.793 18.6265 13.7935C18.4297 13.7948 18.2358 13.7464 18.0628 13.6526C17.9435 13.5879 17.8456 13.49 17.781 13.3708C17.7132 13.2376 17.6658 13.0952 17.6401 12.9481C17.6231 12.7767 17.6401 12.3492 17.6401 11.8209V8.2984ZM13.8353 10.5528C13.8353 9.99933 13.7451 9.58861 13.8353 9.28469C13.9494 8.99931 14.1456 8.75416 14.399 8.5802C14.6384 8.38889 14.9381 8.289 15.2445 8.2984C15.5333 8.28132 15.8223 8.32948 16.09 8.4393C16.268 8.53745 16.4146 8.68401 16.5127 8.862C16.6359 9.03376 16.7311 9.22399 16.7946 9.42559C16.8799 9.74773 16.9272 10.0787 16.9355 10.4119V11.3982C16.9281 11.7778 16.8808 12.1556 16.7946 12.5254C16.7443 12.7754 16.6488 13.0141 16.5127 13.2299C16.4191 13.4112 16.2713 13.5589 16.09 13.6526C15.869 13.7527 15.6279 13.8009 15.3854 13.7935C15.0973 13.7983 14.8108 13.7506 14.5399 13.6526C14.3714 13.6087 14.2224 13.5095 14.1172 13.3708C13.9859 13.1526 13.8907 12.9147 13.8353 12.6663C13.8311 12.6804 13.8353 12.0511 13.8353 11.5391V10.5528ZM11.1579 6.46672L12.0034 9.28469C12.1641 8.51835 12.4628 7.57151 12.708 6.46672H13.5535L12.5671 10.6937V13.6526H11.5807V10.6937L10.3124 6.46672H11.1579ZM24.404 22.9519C24.3332 23.5867 24.0395 24.1759 23.575 24.6145C23.1105 25.0531 22.5055 25.3127 21.8675 25.3471C17.9656 25.5143 14.0669 25.5143 10.1715 25.3471C8.84549 25.2612 7.64066 24.2715 7.49411 22.9519C7.34897 20.8409 7.34897 18.7224 7.49411 16.6114C7.63925 15.2922 8.84549 14.1678 10.1715 14.0753C14.0721 13.9103 17.8247 13.9103 21.7266 14.0753C23.0512 14.1678 24.2575 15.2922 24.404 16.6114C24.5506 18.7224 24.5506 20.8409 24.404 22.9519ZM15.3854 13.2299C15.9491 13.2299 15.8081 12.4314 15.8081 12.2436V9.98919C15.8081 9.42559 15.718 9.00924 15.3854 9.0029C15.0458 8.99642 14.9627 9.42559 14.9627 9.98919V12.2436C14.9627 12.5844 14.9542 13.2299 15.3854 13.2299ZM8.90327 17.0341H10.0306V23.2337H11.2988V17.0341H12.4262V15.9069H8.90327V17.0341ZM14.5399 21.1202C14.5399 21.7824 14.4131 21.8951 14.399 21.9656C14.3691 22.0523 14.3115 22.1269 14.2352 22.1778C14.1588 22.2287 14.0678 22.2531 13.9762 22.2474C13.7916 22.2474 13.7381 22.1294 13.6944 21.9656C13.6761 21.897 13.6944 21.7508 13.6944 21.1202V17.5977H12.5671V22.2474C12.5907 22.4863 12.6379 22.7223 12.708 22.9519C12.7715 23.072 12.8697 23.1702 12.9898 23.2337C13.1121 23.3245 13.2602 23.3739 13.4126 23.3746C13.5643 23.3702 13.7113 23.3212 13.8353 23.2337C13.9614 23.1171 14.058 22.9722 14.1172 22.811L14.5399 22.9519V23.2337H15.5263V17.5977H14.5399V21.1202ZM19.331 17.8795C19.2658 17.7607 19.1681 17.6629 19.0492 17.5977C18.8725 17.5139 18.6809 17.466 18.4855 17.4568C18.346 17.4568 18.3249 17.5235 18.2037 17.5977C18.1614 17.6251 17.4991 18.4431 17.4991 18.4431V15.9069H16.3718V23.2337H17.4991V22.9519L17.6401 22.5292L17.9219 22.811C18.029 22.9872 18.0783 23.1491 18.2037 23.2337C18.3294 23.3177 18.4755 23.3664 18.6265 23.3746C18.9816 23.3746 19.2099 23.1341 19.331 22.811C19.4055 22.5825 19.4528 22.346 19.472 22.1065V19.1476C19.472 19.1589 19.4706 18.4383 19.472 18.3022C19.4491 18.1544 19.4014 18.0115 19.331 17.8795ZM18.3446 21.2611C18.3446 21.7816 18.3475 21.9635 18.3446 21.9656C18.3134 22.0496 18.256 22.1215 18.181 22.1705C18.1059 22.2195 18.0171 22.2432 17.9275 22.2379C17.837 22.241 17.7477 22.2166 17.6712 22.168C17.5948 22.1194 17.5348 22.0488 17.4991 21.9656C17.4738 21.8888 17.4991 21.7376 17.4991 21.2611V19.8521C17.4991 19.356 17.4766 19.076 17.4991 19.0067C17.5343 18.9235 17.5931 18.8524 17.6682 18.8024C17.7434 18.7523 17.8316 18.7253 17.9219 18.7249C18.0127 18.7233 18.1018 18.7494 18.1773 18.7998C18.2528 18.8501 18.3112 18.9223 18.3446 19.0067C18.3686 19.0834 18.3446 19.3829 18.3446 19.8521V21.2611ZM21.3039 20.5566H23.2767V19.993C23.2767 19.4448 23.2372 18.7358 23.1358 18.4431C23.0414 18.1595 22.8117 18.0486 22.5721 17.8795C22.3298 17.6935 22.0321 17.5943 21.7266 17.5977C21.4293 17.5977 21.108 17.601 20.8811 17.7386C20.6275 17.9124 20.4313 18.1576 20.3175 18.4431C20.2118 18.7145 20.1765 19.1635 20.1765 19.8521V21.5429C20.1695 21.9998 20.2975 22.4486 20.5443 22.8331C20.685 22.9992 20.8653 23.1271 21.0685 23.2051C21.3209 23.3144 21.5925 23.3721 21.8675 23.3746C22.0654 23.3858 22.2619 23.3366 22.4312 23.2337C22.613 23.1373 22.8723 23.0025 22.9949 22.811C23.2429 22.1706 23.2767 22.3873 23.2767 21.402V21.1202H22.1494V21.6838C22.1494 22.0019 22.1945 22.2637 22.1494 22.3883C22.1151 22.4721 22.0565 22.5437 21.9812 22.5939C21.9058 22.6441 21.8172 22.6707 21.7266 22.6701C21.3729 22.6744 21.3039 22.3236 21.3039 21.8247V20.5566ZM21.3039 19.1476C21.3039 18.6864 21.2827 18.7878 21.3039 18.7249C21.3386 18.6415 21.3974 18.5702 21.4726 18.52C21.5478 18.4699 21.6362 18.4431 21.7266 18.4431C21.817 18.4431 21.9054 18.4699 21.9806 18.52C22.0559 18.5702 22.1146 18.6415 22.1494 18.7249C22.1691 18.7896 22.1494 18.718 22.1494 19.1476V19.993H21.3039V19.1476Z" fill="white"/>
</svg>
